<mxfile host="app.diagrams.net" modified="2021-03-30T14:13:01.993Z" agent="5.0 (Windows NT 10.0; Win64; x64) AppleWebKit/537.36 (KHTML, like Gecko) Chrome/89.0.4389.90 Safari/537.36" etag="0eiZdcWto-sqD2D7sqhQ" version="14.5.3" type="github" pages="2">
  <diagram id="z1PUTptdAegFVCWy6XEE" name="地铁">
    <mxGraphModel dx="2062" dy="1132" grid="1" gridSize="10" guides="1" tooltips="1" connect="1" arrows="1" fold="1" page="1" pageScale="1" pageWidth="827" pageHeight="1169" math="0" shadow="0">
      <root>
        <mxCell id="0" />
        <mxCell id="1" parent="0" />
        <mxCell id="KcPvEsp4xIb7CbFTIBt4-1" value="" style="shape=image;verticalLabelPosition=bottom;labelBackgroundColor=#ffffff;verticalAlign=top;aspect=fixed;imageAspect=0;image=http://img.8684.cn/intro/plan/1507538301.jpg;" parent="1" vertex="1">
          <mxGeometry x="120" y="90" width="1340" height="670" as="geometry" />
        </mxCell>
        <mxCell id="KcPvEsp4xIb7CbFTIBt4-2" value="&lt;span style=&quot;color: rgb(68 , 68 , 68) ; font-family: &amp;quot;arial&amp;quot; , &amp;quot;microsoft yahei&amp;quot; , ; background-color: rgb(255 , 255 , 255)&quot;&gt;厦门地铁1号线为厦门地铁第一条建成运营的线路。厦门地铁1号线总体呈南北走向，连接了思明区、湖里区、集美区等重要组团，是由本岛向北辐射形成跨海快速连接通道的骨干线路。车辆采用B型车6辆编组。 013年11月13日部分开工，2014年4月全面开工，2017年3月全线贯通[1] 。 2017年10月6日至11日为体验式试运行，预计2017年年底前全线通车试运营。&lt;/span&gt;" style="text;html=1;strokeColor=none;fillColor=none;align=left;verticalAlign=middle;whiteSpace=wrap;rounded=0;" parent="1" vertex="1">
          <mxGeometry x="120" y="800" width="1100" height="80" as="geometry" />
        </mxCell>
        <mxCell id="LVRcriDSqnrYawnx7esZ-4" value="&lt;div&gt;&lt;br&gt;&lt;/div&gt;&lt;div&gt;厦门地铁2号线（Xiamen Metro Line 2）是厦门地铁第二条开通运营的线路，于2019年12月25日正式开通运营，其标志色是绿色&lt;/div&gt;" style="text;html=1;strokeColor=none;fillColor=none;align=left;verticalAlign=middle;whiteSpace=wrap;rounded=0;" parent="1" vertex="1">
          <mxGeometry x="120" y="870" width="910" height="20" as="geometry" />
        </mxCell>
        <mxCell id="gKQxMat19D-7fr0bkekF-1" value="&lt;div&gt;厦门地铁3号线（Xiamen Metro Line 3）是厦门地铁正在建设的一条地铁线路，其标志色是厦门蓝。&lt;/div&gt;&lt;div&gt;厦门地铁3号线起于沙坡尾站，经过思明区、湖里区、翔安区，贯穿厦门大学、曾厝垵、厦门火车站、湖里老城区、火炬园、双十中学、五缘湾、翔安海西商贸中心、翔安南部新城、空港经济区，止于翔安机场站，大致呈西南至东北走向 [1]&amp;nbsp; 。&lt;/div&gt;&lt;div&gt;截至2020年3月，厦门地铁3号线线路长度45.01千米，全线共设31座车站，其中28为地下站，3座为高架车站；采用6节B型编组列车 [2-3]&amp;nbsp; 。&lt;/div&gt;&lt;div&gt;厦门地铁3号线预计于2021年6月开通试运营。&lt;/div&gt;" style="text;html=1;strokeColor=none;fillColor=none;align=left;verticalAlign=middle;whiteSpace=wrap;rounded=0;" vertex="1" parent="1">
          <mxGeometry x="120" y="890" width="1180" height="130" as="geometry" />
        </mxCell>
        <mxCell id="gKQxMat19D-7fr0bkekF-2" value="&lt;div&gt;厦门地铁4号线（Xiamen Metro Line 4）是厦门地铁正在建设的一条地铁线路，其标志色是蔚海蓝 [1]&amp;nbsp; 。&lt;/div&gt;&lt;div&gt;厦门地铁4号线起于嵩屿码头站，经过海沧区、集美区、同安区、翔安区，贯穿海沧商务中心南部居住区、大观岩南侧边缘、临港新城、马銮湾新城、灌口镇、后溪镇、厦门软件园三期、厦门北站、同安新城、丙洲岛、翔安南部新城、空港新城，止于翔安机场站，大致呈西南至东北走向 [2]&amp;nbsp; 。&lt;/div&gt;&lt;div&gt;厦门地铁4号线线路长度约71.23千米，全线共设19座车站；采用B型车6辆编组全自动运行系统。&lt;/div&gt;" style="text;html=1;strokeColor=none;fillColor=none;align=left;verticalAlign=middle;whiteSpace=wrap;rounded=0;" vertex="1" parent="1">
          <mxGeometry x="120" y="1000" width="1110" height="60" as="geometry" />
        </mxCell>
        <mxCell id="gKQxMat19D-7fr0bkekF-3" value="厦门地铁5号线线路长43.10km，设站30 座，线路贯穿厦门岛东部区域后跨海抵达翔安南部新城，后沿翔安重要交通轴线北向连接同安，设置欧厝、董厝两座停车场，洪溪一个车辆段。" style="text;html=1;strokeColor=none;fillColor=none;align=left;verticalAlign=middle;whiteSpace=wrap;rounded=0;" vertex="1" parent="1">
          <mxGeometry x="120" y="1070" width="1160" height="30" as="geometry" />
        </mxCell>
        <mxCell id="gKQxMat19D-7fr0bkekF-4" value="&lt;div&gt;厦门地铁6号线是厦门地铁一条正在建设的线路，计划于2023年8月23日竣工，其标志色为桃园绯。&lt;/div&gt;&lt;div&gt;厦门地铁6号线起于林埭西站，接厦门地铁6号线漳州（角美）延伸段，经过海沧区、集美区、同安区，贯穿马銮湾片区、杏林湾、集美市民中心、禹洲大学城、洪塘头、官浔社区、厦门市第三医院、梵天寺、同安新城，止于新店仔站，大致呈西南至东北走向 [1]&amp;nbsp; 。&lt;/div&gt;&lt;div&gt;截至2020年11月，厦门地铁6号线线路长度46.17千米，车站数量33座，全部为地下站 [2]&amp;nbsp; ，其中林埭西站至华侨大学站已动工建设，华侨大学站至新店仔站未开工建设；该线将采用B型车6节编组无人驾驶新型列车 [1]&amp;nbsp; 。&lt;/div&gt;" style="text;html=1;strokeColor=none;fillColor=none;align=left;verticalAlign=middle;whiteSpace=wrap;rounded=0;" vertex="1" parent="1">
          <mxGeometry x="120" y="1100" width="1290" height="90" as="geometry" />
        </mxCell>
      </root>
    </mxGraphModel>
  </diagram>
  <diagram id="bF7jtSeLBvWkEiVzCb_Y" name="BRT">
    <mxGraphModel dx="2062" dy="1132" grid="1" gridSize="10" guides="1" tooltips="1" connect="1" arrows="1" fold="1" page="1" pageScale="1" pageWidth="827" pageHeight="1169" math="0" shadow="0">
      <root>
        <mxCell id="q4_YHo-yQzRu9iDSKzGQ-0" />
        <mxCell id="q4_YHo-yQzRu9iDSKzGQ-1" parent="q4_YHo-yQzRu9iDSKzGQ-0" />
        <mxCell id="NIOVOs2NJvx79xUigKvq-0" value="&lt;div&gt;BRT快1线：第一码头站-厦门北站&lt;/div&gt;&lt;div&gt;&lt;br&gt;&lt;/div&gt;&lt;div&gt;　　第一码头站-开禾路口站-思北站-斗西路站-二市站-文灶站-金榜公园-火车站-莲坂站-龙山桥站-卧龙晓城站-东芳山庄站-蔡塘站-金山站-市行政中心服务中心站-双十中学站-县后站-高崎机场站-T4候机楼站-嘉庚体育馆站-诚毅学院站-华侨大学站-大学城站-产业研究院站-中科院站-东宅站-田厝站-厦门北站。&lt;/div&gt;" style="text;html=1;strokeColor=none;fillColor=none;align=left;verticalAlign=middle;whiteSpace=wrap;rounded=0;" vertex="1" parent="q4_YHo-yQzRu9iDSKzGQ-1">
          <mxGeometry x="80" y="90" width="610" height="110" as="geometry" />
        </mxCell>
        <mxCell id="NIOVOs2NJvx79xUigKvq-2" value="&lt;div&gt;BRT快2线：第一码头站-同安枢纽站&lt;/div&gt;&lt;div&gt;&lt;br&gt;&lt;/div&gt;&lt;div&gt;　　第一码头-开禾路口-思北站-斗西路口-二市站-文灶-金榜公园站-火车站-莲坂站-龙山桥站-卧龙晓城站-东芳山庄站-蔡塘站-金山站-市行政服务中心站-双十中学站-县后站-高崎机场站-T4航站楼站-凤林站-东安站-后田站-东亭站-美峰站-蔡店站-潘涂站-滨海新城(西柯)枢纽站-官浔站-轻工食品园站-四口圳站-工业集中区站-第三医院站-城南站-同安枢纽站。&lt;/div&gt;" style="text;html=1;strokeColor=none;fillColor=none;align=left;verticalAlign=middle;whiteSpace=wrap;rounded=0;" vertex="1" parent="q4_YHo-yQzRu9iDSKzGQ-1">
          <mxGeometry x="80" y="260" width="630" height="20" as="geometry" />
        </mxCell>
        <mxCell id="NIOVOs2NJvx79xUigKvq-3" value="&lt;div&gt;BRT快3线：第一码头站-前埔枢纽站&lt;/div&gt;&lt;div&gt;&lt;br&gt;&lt;/div&gt;&lt;div&gt;　　第一码头站-开禾路口站-思北站-斗西路站-二市站-文灶站-金榜公园-火车站-莲坂站-龙山桥站-卧龙晓城站-东芳山庄站-洪文站-前埔枢纽站&lt;/div&gt;" style="text;html=1;strokeColor=none;fillColor=none;align=left;verticalAlign=middle;whiteSpace=wrap;rounded=0;" vertex="1" parent="q4_YHo-yQzRu9iDSKzGQ-1">
          <mxGeometry x="80" y="350" width="660" height="60" as="geometry" />
        </mxCell>
        <mxCell id="NIOVOs2NJvx79xUigKvq-4" value="&lt;div&gt;BRT快5线：前埔枢纽站-同安枢纽站&lt;/div&gt;&lt;div&gt;&lt;br&gt;&lt;/div&gt;&lt;div&gt;　　前埔枢纽站-洪文站-蔡塘站-金山站-市行政服务中心站-双十中学站-县后站-高崎机场站-T4候机楼站-凤林站-东安站-后田站-东亭站-美峰站- 蔡店站-潘涂站- 滨海新城(西柯)枢纽站-官浔站-轻工食品园站- 四口圳站-工业集中区站-第三医院站-城南站- 同安枢纽站&lt;/div&gt;&lt;div&gt;&lt;br&gt;&lt;/div&gt;" style="text;html=1;strokeColor=none;fillColor=none;align=left;verticalAlign=middle;whiteSpace=wrap;rounded=0;" vertex="1" parent="q4_YHo-yQzRu9iDSKzGQ-1">
          <mxGeometry x="80" y="440" width="660" height="60" as="geometry" />
        </mxCell>
        <mxCell id="NIOVOs2NJvx79xUigKvq-5" value="&lt;div&gt;&lt;div&gt;BRT快6线：前埔枢纽站-厦门北站&lt;/div&gt;&lt;div&gt;&lt;br&gt;&lt;/div&gt;&lt;div&gt;　　前埔枢纽站-洪文站-蔡塘站-金山站-市行政服务中心站-双十中学站-县后站-T4候机楼站-嘉庚体育馆站-诚毅学院站-华侨大学站-大学城站-中科院站-东宅站-田厝站-厦门北站&lt;/div&gt;&lt;/div&gt;" style="text;html=1;strokeColor=none;fillColor=none;align=left;verticalAlign=middle;whiteSpace=wrap;rounded=0;" vertex="1" parent="q4_YHo-yQzRu9iDSKzGQ-1">
          <mxGeometry x="80" y="555" width="660" height="60" as="geometry" />
        </mxCell>
        <mxCell id="NIOVOs2NJvx79xUigKvq-6" value="&lt;div&gt;BRT快7线：&lt;/div&gt;&lt;div&gt;&lt;br&gt;&lt;/div&gt;&lt;div&gt;　　第一码头站-开禾路口站-思北站-斗西路站-二市站-文灶站-金榜公园-火车站-莲坂站-龙山桥站-卧龙晓城站-东芳山庄站-洪文站-前埔枢纽站&lt;/div&gt;" style="text;html=1;strokeColor=none;fillColor=none;align=left;verticalAlign=middle;whiteSpace=wrap;rounded=0;" vertex="1" parent="q4_YHo-yQzRu9iDSKzGQ-1">
          <mxGeometry x="84" y="650" width="660" height="60" as="geometry" />
        </mxCell>
        <mxCell id="NIOVOs2NJvx79xUigKvq-7" value="&lt;div&gt;BRT快8线：&lt;/div&gt;&lt;div&gt;&lt;br&gt;&lt;/div&gt;&lt;div&gt;　　第一码头站-开禾路口站-思北站-斗西路站-二市站-文灶站-金榜公园-火车站-莲坂站-龙山桥站-卧龙晓城站-东芳山庄站-蔡塘站-金山站-市行政服务中心站-双十中学站-县后站-高崎机场站&lt;/div&gt;" style="text;html=1;strokeColor=none;fillColor=none;align=left;verticalAlign=middle;whiteSpace=wrap;rounded=0;" vertex="1" parent="q4_YHo-yQzRu9iDSKzGQ-1">
          <mxGeometry x="84" y="740" width="660" height="60" as="geometry" />
        </mxCell>
        <mxCell id="NIOVOs2NJvx79xUigKvq-8" value="&lt;div&gt;BRT快9线：高崎机场-前埔枢纽站&lt;/div&gt;&lt;div&gt;&lt;br&gt;&lt;/div&gt;&lt;div&gt;　　前埔枢纽站-洪文站-蔡塘站-金山站-市行政服务中心站-双十中学站-县后站-高崎机场站&lt;/div&gt;" style="text;html=1;strokeColor=none;fillColor=none;align=left;verticalAlign=middle;whiteSpace=wrap;rounded=0;" vertex="1" parent="q4_YHo-yQzRu9iDSKzGQ-1">
          <mxGeometry x="80" y="850" width="660" height="60" as="geometry" />
        </mxCell>
      </root>
    </mxGraphModel>
  </diagram>
</mxfile>
